<svg width="40" height="40" viewBox="0 0 40 40" fill="none" xmlns="http://www.w3.org/2000/svg">
<path d="M16.6667 34.9999H23.3333C23.3333 36.8333 21.8333 38.3333 20 38.3333C18.1667 38.3333 16.6667 36.8333 16.6667 34.9999ZM35 31.6666V33.3333H5V31.6666L8.33333 28.3333V18.3333C8.33333 13.1666 11.6667 8.66659 16.6667 7.16659V6.66659C16.6667 4.83325 18.1667 3.33325 20 3.33325C21.8333 3.33325 23.3333 4.83325 23.3333 6.66659V7.16659C28.3333 8.66659 31.6667 13.1666 31.6667 18.3333V28.3333L35 31.6666ZM28.3333 18.3333C28.3333 13.6666 24.6667 9.99992 20 9.99992C15.3333 9.99992 11.6667 13.6666 11.6667 18.3333V29.9999H28.3333V18.3333Z" fill="#282828"/>
</svg>
