<svg width="40" height="40" viewBox="0 0 40 40" fill="none" xmlns="http://www.w3.org/2000/svg">
<path d="M15.3835 29.3166V38.5333H11.4668V11.1999C11.4668 8.78325 12.1835 6.88325 13.6001 5.46659C15.0001 4.04992 16.9501 3.33325 19.3501 3.33325C21.6668 3.33325 23.4501 3.89992 24.7835 4.99992C26.1001 6.13325 26.7501 7.69992 26.7501 9.68325C26.7501 11.0499 26.3168 12.3333 25.4501 13.5166C24.5835 14.6999 23.4668 15.5166 22.0835 15.9666V16.0333C24.1668 16.3666 25.7835 17.1166 26.8835 18.3333C27.9835 19.5166 28.5335 21.0333 28.5335 22.8999C28.5335 25.0999 27.7668 26.8999 26.2501 28.2833C24.7168 29.6666 22.7168 30.3499 20.2168 30.3499C18.4501 30.3499 16.8335 29.9999 15.3835 29.3166ZM17.8668 17.9166V14.7166C19.3168 14.5333 20.5001 13.9999 21.4501 13.0999C22.3835 12.1833 22.8501 11.1666 22.8501 9.99992C22.8501 7.69992 21.6668 6.53325 19.3335 6.53325C18.0668 6.53325 17.0835 6.93325 16.4001 7.74992C15.7168 8.56659 15.3835 9.69992 15.3835 11.1833V25.8333C16.9001 26.7166 18.3835 27.1499 19.8168 27.1499C21.2168 27.1499 22.3168 26.7833 23.1001 26.0666C23.8835 25.3333 24.2668 24.2999 24.2668 22.9833C24.2668 19.9999 22.1335 18.3333 17.8668 17.9166Z" fill="#282828"/>
</svg>
