<svg width="40" height="40" viewBox="0 0 40 40" fill="none" xmlns="http://www.w3.org/2000/svg">
<path d="M29.9998 3.33325C30.8839 3.33325 31.7317 3.68444 32.3569 4.30956C32.982 4.93468 33.3332 5.78253 33.3332 6.66659V33.3333C33.3332 34.2173 32.982 35.0652 32.3569 35.6903C31.7317 36.3154 30.8839 36.6666 29.9998 36.6666H9.99984C9.11578 36.6666 8.26794 36.3154 7.64281 35.6903C7.01769 35.0652 6.6665 34.2173 6.6665 33.3333V6.66659C6.6665 5.78253 7.01769 4.93468 7.64281 4.30956C8.26794 3.68444 9.11578 3.33325 9.99984 3.33325H29.9998ZM29.9998 6.66659H21.6665V19.9999L17.4998 16.2499L13.3332 19.9999V6.66659H9.99984V33.3333H29.9998V6.66659Z" fill="#282828"/>
</svg>
