<svg width="40" height="40" viewBox="0 0 40 40" fill="none" xmlns="http://www.w3.org/2000/svg">
<path d="M4.99984 10C3.14984 10 1.6665 11.4833 1.6665 13.3333V25H4.99984C4.99984 26.3261 5.52662 27.5979 6.4643 28.5355C7.40199 29.4732 8.67376 30 9.99984 30C11.3259 30 12.5977 29.4732 13.5354 28.5355C14.4731 27.5979 14.9998 26.3261 14.9998 25H24.9998C24.9998 26.3261 25.5266 27.5979 26.4643 28.5355C27.402 29.4732 28.6738 30 29.9998 30C31.3259 30 32.5977 29.4732 33.5354 28.5355C34.4731 27.5979 34.9998 26.3261 34.9998 25H38.3332V13.3333C38.3332 11.4833 36.8498 10 34.9998 10H4.99984ZM4.1665 12.5H10.8332V16.6667H4.1665V12.5ZM13.3332 12.5H19.9998V16.6667H13.3332V12.5ZM22.4998 12.5H29.1665V16.6667H22.4998V12.5ZM31.6665 12.5H35.8332V21.6667L31.6665 18.3333V12.5ZM9.99984 22.5C10.6629 22.5 11.2988 22.7634 11.7676 23.2322C12.2364 23.7011 12.4998 24.337 12.4998 25C12.4998 25.663 12.2364 26.2989 11.7676 26.7678C11.2988 27.2366 10.6629 27.5 9.99984 27.5C9.3368 27.5 8.70091 27.2366 8.23207 26.7678C7.76323 26.2989 7.49984 25.663 7.49984 25C7.49984 24.337 7.76323 23.7011 8.23207 23.2322C8.70091 22.7634 9.3368 22.5 9.99984 22.5ZM29.9998 22.5C30.6629 22.5 31.2988 22.7634 31.7676 23.2322C32.2364 23.7011 32.4998 24.337 32.4998 25C32.4998 25.663 32.2364 26.2989 31.7676 26.7678C31.2988 27.2366 30.6629 27.5 29.9998 27.5C29.3368 27.5 28.7009 27.2366 28.2321 26.7678C27.7632 26.2989 27.4998 25.663 27.4998 25C27.4998 24.337 27.7632 23.7011 28.2321 23.2322C28.7009 22.7634 29.3368 22.5 29.9998 22.5Z" fill="#282828"/>
</svg>
