<svg width="40" height="40" viewBox="0 0 40 40" fill="none" xmlns="http://www.w3.org/2000/svg">
<path d="M31.6667 5H8.33333C6.5 5 5 6.5 5 8.33333V31.6667C5 33.5 6.5 35 8.33333 35H31.6667C33.5 35 35 33.5 35 31.6667V8.33333C35 6.5 33.5 5 31.6667 5ZM31.6667 31.6667H8.33333V8.33333H31.6667V31.6667ZM10.3333 12.8333H18.6667V15.3333H10.3333V12.8333ZM21.6667 26.3333H30V28.8333H21.6667V26.3333ZM21.6667 22H30V24.5H21.6667V22ZM13.3333 30H15.8333V26.6667H19.1667V24.1667H15.8333V20.8333H13.3333V24.1667H10V26.6667H13.3333V30ZM23.5 18.1667L25.8333 15.8333L28.1667 18.1667L30 16.5L27.6667 14.1667L30 11.8333L28.1667 10L25.8333 12.3333L23.5 10L21.6667 11.8333L24 14.1667L21.6667 16.5L23.5 18.1667Z" fill="#282828"/>
</svg>
