<svg width="40" height="40" viewBox="0 0 40 40" fill="none" xmlns="http://www.w3.org/2000/svg">
<path d="M20.8333 2.5C17.8833 2.5 15.2833 4.45 14.45 7.28333C13.5667 6.88333 12.6333 6.66667 11.6667 6.66667C9.89856 6.66667 8.20286 7.36905 6.95262 8.61929C5.70238 9.86953 5 11.5652 5 13.3333C5 16.3667 7.06667 19.0167 10 19.7833V31.6667H31.6667V19.7833C34.6 19.0167 36.6667 16.3667 36.6667 13.3333C36.6667 11.5652 35.9643 9.86953 34.714 8.61929C33.4638 7.36905 31.7681 6.66667 30 6.66667C29.0333 6.66667 28.1 6.88333 27.2167 7.28333C26.3833 4.45 23.7833 2.5 20.8333 2.5ZM20 17.5H21.6667V29.1667H20V17.5ZM15 20.8333H16.6667V29.1667H15V20.8333ZM25 20.8333H26.6667V29.1667H25V20.8333ZM10 33.3333V35C10 35.442 10.1756 35.866 10.4882 36.1785C10.8007 36.4911 11.2246 36.6667 11.6667 36.6667H30C30.442 36.6667 30.866 36.4911 31.1785 36.1785C31.4911 35.866 31.6667 35.442 31.6667 35V33.3333H10Z" fill="#282828"/>
</svg>
