<svg width="40" height="40" viewBox="0 0 40 40" fill="none" xmlns="http://www.w3.org/2000/svg">
<path d="M28.3333 28.3333H11.6667V11.6667H28.3333M35 18.3333V15H31.6667V11.6667C31.6667 9.81667 30.1667 8.33333 28.3333 8.33333H25V5H21.6667V8.33333H18.3333V5H15V8.33333H11.6667C9.81667 8.33333 8.33333 9.81667 8.33333 11.6667V15H5V18.3333H8.33333V21.6667H5V25H8.33333V28.3333C8.33333 29.2174 8.68452 30.0652 9.30964 30.6904C9.93477 31.3155 10.7826 31.6667 11.6667 31.6667H15V35H18.3333V31.6667H21.6667V35H25V31.6667H28.3333C29.2174 31.6667 30.0652 31.3155 30.6904 30.6904C31.3155 30.0652 31.6667 29.2174 31.6667 28.3333V25H35V21.6667H31.6667V18.3333M21.6667 21.6667H18.3333V18.3333H21.6667M25 15H15V25H25V15Z" fill="#282828"/>
</svg>
