<svg width="40" height="40" viewBox="0 0 40 40" fill="none" xmlns="http://www.w3.org/2000/svg">
<path d="M34.7334 3.6333L28.1834 4.9333L32.7501 10.8333L36.0334 10.1666L34.7334 3.6333ZM23.2834 5.89997L20.0001 6.54997L24.5834 12.4333L27.8501 11.7833L23.2834 5.89997ZM15.1167 7.49997L11.8334 8.1833L16.4167 14.0666L19.6834 13.4166L15.1167 7.49997ZM6.93339 9.16663L5.30005 9.4833C3.50005 9.8333 2.31672 11.6 2.68339 13.4L3.33339 16.6666L11.5001 15.05L6.93339 9.16663ZM33.3334 20V33.3333H6.66672V20H33.3334ZM36.6667 16.6666H3.33339V33.3333C3.33339 35.1833 4.83339 36.6666 6.66672 36.6666H33.3334C35.1834 36.6666 36.6667 35.1833 36.6667 33.3333V16.6666Z" fill="#282828"/>
</svg>
