<svg width="40" height="40" viewBox="0 0 40 40" fill="none" xmlns="http://www.w3.org/2000/svg">
<path d="M31.5333 23.3334C31.0667 26.6167 29.2167 29.4667 26.6 31.2667C26.2667 29.8834 24.2167 28.7501 21.5333 28.4334C21.8167 26.4501 22.4 24.6001 22.8 23.5334C23.4333 23.9334 24.1667 24.1667 25 24.1667C30.9167 24.1667 30 14.1667 30 14.1667C30 14.1667 29.1667 15.8334 26.6667 15.8334H25C22.7 15.8334 20.8333 17.7001 20.8333 20.0001C20.8333 20.8334 21.0667 21.5501 21.45 22.1834C22.55 21.0334 23.7333 20.0001 25 19.1667C22.8 21.3834 21.1167 24.1667 20 26.8334C18.95 24.7834 17.6333 23.2167 16.6667 22.5001C17.45 22.8334 18.1833 23.3334 18.8833 23.8334C19.0667 23.4334 19.1667 22.9834 19.1667 22.5001C19.0833 17.9501 11.6667 18.3334 11.6667 18.3334C12.1833 19.0334 12.5 19.9167 12.5 20.8334V22.5001C12.5 24.3334 14 25.8334 15.8333 25.8334C16.6667 25.8334 17.4167 25.5334 18 25.0001C18.3833 26.0501 18.6667 27.2501 18.8167 28.4001C15.95 28.6501 13.75 29.8167 13.4 31.2834C10.35 29.1667 8.33333 25.6501 8.33333 21.6667C8.33333 15.2334 13.5667 10.0001 20 10.0001V15.0001L28.3333 8.33341L20 1.66675V6.66675C11.7167 6.66675 5 13.3834 5 21.6667C5 29.9501 11.7167 36.6667 20 36.6667C27.7167 36.6667 34.0667 30.8334 34.9 23.3334H31.5333Z" fill="#282828"/>
</svg>
