<svg width="40" height="40" viewBox="0 0 40 40" fill="none" xmlns="http://www.w3.org/2000/svg">
<path d="M8.33333 31.6666C8.33333 32.1086 8.50893 32.5325 8.82149 32.8451C9.13405 33.1577 9.55797 33.3333 10 33.3333H30C30.442 33.3333 30.866 33.1577 31.1785 32.8451C31.4911 32.5325 31.6667 32.1086 31.6667 31.6666C31.6667 31.3166 31.55 30.9833 31.3667 30.7166L21.6667 13.9166V6.66659H18.3333V13.9166L8.63333 30.7166C8.45 30.9833 8.33333 31.3166 8.33333 31.6666ZM10 36.6666C8.67392 36.6666 7.40215 36.1398 6.46447 35.2021C5.52678 34.2644 5 32.9927 5 31.6666C5 30.6666 5.3 29.7333 5.83333 28.9499L15 13.0166V9.99992C14.558 9.99992 14.134 9.82432 13.8215 9.51176C13.5089 9.1992 13.3333 8.77528 13.3333 8.33325V6.66659C13.3333 5.78253 13.6845 4.93468 14.3096 4.30956C14.9348 3.68444 15.7826 3.33325 16.6667 3.33325H23.3333C24.2174 3.33325 25.0652 3.68444 25.6904 4.30956C26.3155 4.93468 26.6667 5.78253 26.6667 6.66659V8.33325C26.6667 8.77528 26.4911 9.1992 26.1785 9.51176C25.8659 9.82432 25.442 9.99992 25 9.99992V13.0166L34.1667 28.9499C34.7 29.7333 35 30.6666 35 31.6666C35 32.9927 34.4732 34.2644 33.5355 35.2021C32.5979 36.1398 31.3261 36.6666 30 36.6666H10ZM21.6667 26.6666L23.9 24.4333L27.1167 29.9999H12.8833L17.3167 22.3166L21.6667 26.6666ZM20.8333 19.9999C21.0543 19.9999 21.2663 20.0877 21.4226 20.244C21.5789 20.4003 21.6667 20.6122 21.6667 20.8333C21.6667 21.0543 21.5789 21.2662 21.4226 21.4225C21.2663 21.5788 21.0543 21.6666 20.8333 21.6666C20.6123 21.6666 20.4004 21.5788 20.2441 21.4225C20.0878 21.2662 20 21.0543 20 20.8333C20 20.6122 20.0878 20.4003 20.2441 20.244C20.4004 20.0877 20.6123 19.9999 20.8333 19.9999Z" fill="#282828"/>
</svg>
