<svg width="40" height="40" viewBox="0 0 40 40" fill="none" xmlns="http://www.w3.org/2000/svg">
<path d="M31.6668 6.66675H33.3335V1.66675H26.6668V6.66675C26.6668 6.66675 30.0002 13.3334 30.0002 20.0001C30.0002 26.6667 26.6668 31.6667 20.0002 31.6667C13.3335 31.6667 10.0002 26.6667 10.0002 20.0001C10.0002 13.3334 13.3335 6.66675 13.3335 6.66675V1.66675H6.66683V6.66675H8.3335C8.3335 6.66675 3.3335 13.3334 3.3335 23.3334C3.3335 31.6667 11.6668 38.3334 20.0002 38.3334C28.3335 38.3334 36.6668 31.6667 36.6668 23.3334C36.6668 13.3334 31.6668 6.66675 31.6668 6.66675ZM6.66683 21.6667C5.66683 21.6667 5.00016 21.0001 5.00016 20.0001C5.00016 19.0001 5.66683 18.3334 6.66683 18.3334C7.66683 18.3334 8.3335 19.0001 8.3335 20.0001C8.3335 21.0001 7.66683 21.6667 6.66683 21.6667ZM10.0002 31.6667C9.00016 31.6667 8.3335 31.0001 8.3335 30.0001C8.3335 29.0001 9.00016 28.3334 10.0002 28.3334C11.0002 28.3334 11.6668 29.0001 11.6668 30.0001C11.6668 31.0001 11.0002 31.6667 10.0002 31.6667ZM20.0002 36.6667C19.0002 36.6667 18.3335 36.0001 18.3335 35.0001C18.3335 34.0001 19.0002 33.3334 20.0002 33.3334C21.0002 33.3334 21.6668 34.0001 21.6668 35.0001C21.6668 36.0001 21.0002 36.6667 20.0002 36.6667ZM30.0002 31.6667C29.0002 31.6667 28.3335 31.0001 28.3335 30.0001C28.3335 29.0001 29.0002 28.3334 30.0002 28.3334C31.0002 28.3334 31.6668 29.0001 31.6668 30.0001C31.6668 31.0001 31.0002 31.6667 30.0002 31.6667ZM33.3335 21.6667C32.3335 21.6667 31.6668 21.0001 31.6668 20.0001C31.6668 19.0001 32.3335 18.3334 33.3335 18.3334C34.3335 18.3334 35.0002 19.0001 35.0002 20.0001C35.0002 21.0001 34.3335 21.6667 33.3335 21.6667Z" fill="#282828"/>
</svg>
