<svg width="40" height="40" viewBox="0 0 40 40" fill="none" xmlns="http://www.w3.org/2000/svg">
<path d="M34.1667 5L33.9 5.05L25 8.5L15 5L5.6 8.16667C5.25 8.28333 5 8.58333 5 8.96667V34.1667C5 34.3877 5.0878 34.5996 5.24408 34.7559C5.40036 34.9122 5.61232 35 5.83333 35L6.1 34.95L15 31.5L25 35L34.4 31.8333C34.75 31.7167 35 31.4167 35 31.0333V5.83333C35 5.61232 34.9122 5.40036 34.7559 5.24408C34.5996 5.0878 34.3877 5 34.1667 5ZM16.6667 9.11667L23.3333 11.45V30.8833L16.6667 28.55V9.11667ZM8.33333 10.7667L13.3333 9.08333V28.5833L8.33333 30.5167V10.7667ZM31.6667 29.2333L26.6667 30.9167V11.4333L31.6667 9.5V29.2333Z" fill="#282828"/>
</svg>
