<svg width="40" height="40" viewBox="0 0 40 40" fill="none" xmlns="http://www.w3.org/2000/svg">
<path d="M14.9999 3.33325H11.6666V6.83325C10.4832 7.08325 9.5499 7.56658 8.86657 8.18325L4.4999 3.81659L2.1499 6.18325L7.06657 11.0833C6.66657 12.3166 6.66657 13.3333 6.66657 13.3333H3.33324V16.6666H6.73324C6.83324 17.7166 7.01657 18.9333 7.33324 20.2499L2.7999 21.7499L3.8499 24.9166L8.33324 23.4166C8.73324 24.2666 9.16657 25.1333 9.6999 25.9666L5.73324 28.6166L7.58324 31.3833L11.7832 28.5833C12.7166 29.5166 13.8166 30.3499 15.0999 31.0666L13.4999 34.2499L16.4832 35.7499L18.1499 32.4166L17.8832 32.2666C19.4666 32.7999 21.2666 33.1666 23.3332 33.2833V36.6666H26.6666V33.2166C27.9332 33.0666 29.6832 32.7333 31.2832 31.9833L33.8166 34.5166L36.1666 32.1499L33.9499 29.9166C34.5832 29.0666 34.9999 27.9999 34.9999 26.6666C34.9999 25.8333 34.9166 25.1333 34.7999 24.4666L37.4166 23.1666L35.9166 20.1666L33.6332 21.3166C32.7166 19.9333 31.5166 19.1666 30.4832 18.7999L31.5832 15.5333L28.4166 14.4666L27.1499 18.2666C24.9332 18.0499 23.6166 17.1999 22.8332 16.2833L25.7499 14.8333L24.2499 11.8333L21.6666 13.1499C21.6166 12.6499 21.4332 11.1999 20.4666 9.78325L23.0499 5.91659L20.2832 4.06659L17.9332 7.59992C17.1332 7.21659 16.1666 6.91659 14.9999 6.76659M24.9999 29.9999C20.0999 29.9999 16.3499 28.6333 13.8499 25.9333C9.46657 21.1999 9.9999 13.6666 9.9999 13.6166V13.5166V13.3833C9.9999 11.8333 10.6499 9.99992 13.3332 9.99992C17.7166 9.99992 18.2832 12.3833 18.3332 13.3333C18.3332 16.6666 20.9999 21.6666 28.3332 21.6666C28.8832 21.6666 31.6666 21.9166 31.6666 26.6666C31.6666 29.8166 25.0499 29.9999 24.9999 29.9999ZM14.1666 13.3333C13.5035 13.3333 12.8676 13.5966 12.3988 14.0655C11.93 14.5343 11.6666 15.1702 11.6666 15.8333C11.6666 16.4963 11.93 17.1322 12.3988 17.601C12.8676 18.0699 13.5035 18.3333 14.1666 18.3333C14.8296 18.3333 15.4655 18.0699 15.9343 17.601C16.4032 17.1322 16.6666 16.4963 16.6666 15.8333C16.6666 15.1702 16.4032 14.5343 15.9343 14.0655C15.4655 13.5966 14.8296 13.3333 14.1666 13.3333ZM18.3332 19.9999C17.8912 19.9999 17.4673 20.1755 17.1547 20.4881C16.8422 20.8006 16.6666 21.2246 16.6666 21.6666C16.6666 22.1086 16.8422 22.5325 17.1547 22.8451C17.4673 23.1577 17.8912 23.3333 18.3332 23.3333C18.7753 23.3333 19.1992 23.1577 19.5117 22.8451C19.8243 22.5325 19.9999 22.1086 19.9999 21.6666C19.9999 21.2246 19.8243 20.8006 19.5117 20.4881C19.1992 20.1755 18.7753 19.9999 18.3332 19.9999ZM25.8332 23.3333C25.1702 23.3333 24.5343 23.5966 24.0655 24.0655C23.5966 24.5343 23.3332 25.1702 23.3332 25.8333C23.3332 26.4963 23.5966 27.1322 24.0655 27.601C24.5343 28.0699 25.1702 28.3333 25.8332 28.3333C26.4963 28.3333 27.1322 28.0699 27.601 27.601C28.0698 27.1322 28.3332 26.4963 28.3332 25.8333C28.3332 25.1702 28.0698 24.5343 27.601 24.0655C27.1322 23.5966 26.4963 23.3333 25.8332 23.3333Z" fill="#282828"/>
</svg>
