<svg width="40" height="40" viewBox="0 0 40 40" fill="none" xmlns="http://www.w3.org/2000/svg">
<path d="M33.7998 6.09996C32.1332 5.73329 30.8998 3.74996 29.2832 3.39996C27.6665 3.04996 25.6665 4.31662 24.0332 3.94996C22.2998 3.33329 20.3665 3.54996 18.7998 4.51663L18.6832 28.3333L18.3332 30C17.7332 32.7 19.4498 35.3666 22.1498 35.9666C24.8332 36.55 27.4998 34.85 28.0998 32.15L28.4498 30.4833L38.3332 8.79996C37.3165 7.24996 35.6498 6.26663 33.7998 6.09996ZM24.8498 31.4333C24.6498 32.35 23.7498 32.9333 22.8332 32.75C21.8998 32.55 21.3165 31.6666 21.5165 30.7166L22.9498 24.1666C23.0998 23.2833 23.9498 22.6666 24.8665 22.8166C25.7665 22.9666 26.3832 23.8333 26.2332 24.7333C26.2332 24.8 26.2165 24.85 26.1998 24.9166L24.8498 31.4333ZM16.1998 35.5666C15.5498 34.55 15.1332 33.4166 14.9998 32.2333L13.7332 26.6666C13.4998 25.7833 14.0165 24.8666 14.9998 24.6C15.1165 24.5833 15.2498 24.5833 15.3665 24.6V5.71663C13.8498 5.71663 12.0332 4.76662 10.6332 5.09996C9.23317 5.43329 7.8165 7.39996 6.19984 7.76662C4.34984 7.93329 2.68317 8.91663 1.6665 10.4666L11.5498 32.1333L11.8998 33.8C12.4998 36.5 15.1498 38.2 17.8498 37.6166H18.0165C17.2998 37.0333 16.6665 36.35 16.1998 35.5666Z" fill="#282828"/>
</svg>
