<svg width="40" height="40" viewBox="0 0 40 40" fill="none" xmlns="http://www.w3.org/2000/svg">
<path d="M20.0002 13.3333C21.7683 13.3333 23.464 14.0356 24.7143 15.2859C25.9645 16.5361 26.6669 18.2318 26.6669 19.9999C26.6669 21.768 25.9645 23.4637 24.7143 24.714C23.464 25.9642 21.7683 26.6666 20.0002 26.6666C18.2321 26.6666 16.5364 25.9642 15.2862 24.714C14.0359 23.4637 13.3336 21.768 13.3336 19.9999C13.3336 18.2318 14.0359 16.5361 15.2862 15.2859C16.5364 14.0356 18.2321 13.3333 20.0002 13.3333ZM20.0002 16.6666C19.1162 16.6666 18.2683 17.0178 17.6432 17.6429C17.0181 18.268 16.6669 19.1159 16.6669 19.9999C16.6669 20.884 17.0181 21.7318 17.6432 22.3569C18.2683 22.9821 19.1162 23.3333 20.0002 23.3333C20.8843 23.3333 21.7321 22.9821 22.3572 22.3569C22.9824 21.7318 23.3336 20.884 23.3336 19.9999C23.3336 19.1159 22.9824 18.268 22.3572 17.6429C21.7321 17.0178 20.8843 16.6666 20.0002 16.6666ZM16.6669 36.6666C16.2502 36.6666 15.9002 36.3666 15.8336 35.9666L15.2169 31.5499C14.1669 31.1333 13.2669 30.5666 12.4002 29.8999L8.25022 31.5833C7.88355 31.7166 7.43355 31.5833 7.23355 31.2166L3.90022 25.4499C3.68355 25.0833 3.78355 24.6333 4.10022 24.3833L7.61689 21.6166L7.50022 19.9999L7.61689 18.3333L4.10022 15.6166C3.78355 15.3666 3.68355 14.9166 3.90022 14.5499L7.23355 8.78325C7.43355 8.41659 7.88355 8.26659 8.25022 8.41659L12.4002 10.0833C13.2669 9.43325 14.1669 8.86659 15.2169 8.44992L15.8336 4.03325C15.9002 3.63325 16.2502 3.33325 16.6669 3.33325H23.3336C23.7502 3.33325 24.1002 3.63325 24.1669 4.03325L24.7836 8.44992C25.8336 8.86659 26.7336 9.43325 27.6002 10.0833L31.7502 8.41659C32.1169 8.26659 32.5669 8.41659 32.7669 8.78325L36.1002 14.5499C36.3169 14.9166 36.2169 15.3666 35.9002 15.6166L32.3836 18.3333L32.5002 19.9999L32.3836 21.6666L35.9002 24.3833C36.2169 24.6333 36.3169 25.0833 36.1002 25.4499L32.7669 31.2166C32.5669 31.5833 32.1169 31.7333 31.7502 31.5833L27.6002 29.9166C26.7336 30.5666 25.8336 31.1333 24.7836 31.5499L24.1669 35.9666C24.1002 36.3666 23.7502 36.6666 23.3336 36.6666H16.6669ZM18.7502 6.66659L18.1336 11.0166C16.1336 11.4333 14.3669 12.4999 13.0836 13.9833L9.06689 12.2499L7.81689 14.4166L11.3336 16.9999C10.6669 18.9499 10.6669 21.0666 11.3336 22.9999L7.80022 25.5999L9.05022 27.7666L13.1002 26.0333C14.3836 27.4999 16.1336 28.5666 18.1169 28.9666L18.7336 33.3333H21.2669L21.8836 28.9833C23.8669 28.5666 25.6169 27.4999 26.9002 26.0333L30.9502 27.7666L32.2002 25.5999L28.6669 23.0166C29.3336 21.0666 29.3336 18.9499 28.6669 16.9999L32.1836 14.4166L30.9336 12.2499L26.9169 13.9833C25.6336 12.4999 23.8669 11.4333 21.8669 11.0333L21.2502 6.66659H18.7502Z" fill="#282828"/>
</svg>
