<svg width="40" height="40" viewBox="0 0 40 40" fill="none" xmlns="http://www.w3.org/2000/svg">
<path d="M20.0002 26.6667C22.7668 26.6667 25.0002 24.4333 25.0002 21.6667C25.0002 19.8 23.9835 18.1667 22.5002 17.3167L6.31683 7.95L15.5335 23.9167C16.3668 25.55 18.0502 26.6667 20.0002 26.6667ZM20.0002 5C16.9835 5 14.1668 5.83333 11.7168 7.2L15.2168 9.21667C16.6668 8.65 18.3335 8.33333 20.0002 8.33333C27.3668 8.33333 33.3335 14.3 33.3335 21.6667C33.3335 25.35 31.8502 28.6833 29.4335 31.0833H29.4168C28.7668 31.7333 28.7668 32.7833 29.4168 33.4333C30.0668 34.0833 31.1335 34.0833 31.7835 33.45C34.8002 30.4333 36.6668 26.2667 36.6668 21.6667C36.6668 12.5 29.1668 5 20.0002 5ZM3.3335 21.6667C3.3335 26.2667 5.20016 30.4333 8.21683 33.45C8.86683 34.0833 9.91683 34.0833 10.5668 33.4333C11.2168 32.7833 11.2168 31.7333 10.5668 31.0833C8.15016 28.6667 6.66683 25.35 6.66683 21.6667C6.66683 20 6.9835 18.3333 7.56683 16.8333L5.55016 13.3333C4.16683 15.8333 3.3335 18.6333 3.3335 21.6667Z" fill="#282828"/>
</svg>
