<svg width="40" height="40" viewBox="0 0 40 40" fill="none" xmlns="http://www.w3.org/2000/svg">
<path d="M29.9998 17.4999V9.99992L26.4832 11.7666C26.5998 12.2666 26.6665 12.7833 26.6665 13.3333C26.6665 17.0166 23.6832 19.9999 19.9998 19.9999C16.3165 19.9999 13.3332 17.0166 13.3332 13.3333C13.3332 12.7833 13.3998 12.2666 13.5165 11.7666L8.33317 9.16659L19.9998 3.33325L31.6665 9.16659V17.4999H29.9998ZM19.9998 14.9999L16.6665 13.3333C16.6665 15.1666 18.1665 16.6666 19.9998 16.6666C21.8332 16.6666 23.3332 15.1666 23.3332 13.3333L19.9998 14.9999ZM24.5832 9.03325L20.2665 6.83325L15.7832 9.11658L20.1165 11.3166L24.5832 9.03325ZM19.9998 21.6666C24.4498 21.6666 33.3332 23.8833 33.3332 28.3333V33.3333H6.6665V28.3333C6.6665 23.8833 15.5498 21.6666 19.9998 21.6666ZM19.9998 24.8333C14.9998 24.8333 9.83317 27.2666 9.83317 28.3333V30.1666H30.1665V28.3333C30.1665 27.2666 24.9498 24.8333 19.9998 24.8333Z" fill="#282828"/>
</svg>
