<svg width="40" height="40" viewBox="0 0 40 40" fill="none" xmlns="http://www.w3.org/2000/svg">
<path d="M33.3333 28.3333C34.2174 28.3333 35.0652 27.9821 35.6904 27.3569C36.3155 26.7318 36.6667 25.884 36.6667 24.9999V6.66659C36.6667 5.78253 36.3155 4.93468 35.6904 4.30956C35.0652 3.68444 34.2174 3.33325 33.3333 3.33325H15.7667C16.35 4.34992 16.6667 5.49992 16.6667 6.66659H33.3333V24.9999H18.3333V28.3333M25 11.6666V14.9999H15V36.6666H11.6667V26.6666H8.33333V36.6666H5V23.3333H2.5V14.9999C2.5 14.1159 2.85119 13.268 3.47631 12.6429C4.10143 12.0178 4.94928 11.6666 5.83333 11.6666H25ZM13.3333 6.66659C13.3333 7.55064 12.9821 8.39849 12.357 9.02361C11.7319 9.64873 10.8841 9.99992 10 9.99992C9.11595 9.99992 8.2681 9.64873 7.64298 9.02361C7.01786 8.39849 6.66667 7.55064 6.66667 6.66659C6.66667 5.78253 7.01786 4.93468 7.64298 4.30956C8.2681 3.68444 9.11595 3.33325 10 3.33325C10.8841 3.33325 11.7319 3.68444 12.357 4.30956C12.9821 4.93468 13.3333 5.78253 13.3333 6.66659Z" fill="#282828"/>
</svg>
