<svg width="40" height="40" viewBox="0 0 40 40" fill="none" xmlns="http://www.w3.org/2000/svg">
<path d="M37.6835 31.6668L22.5502 16.5168C24.1002 12.6168 23.3335 8.01678 20.1502 4.85011C16.3168 1.01678 10.3502 0.666781 6.10018 3.76678L12.5002 10.1834L10.1335 12.5001L3.75018 6.15011C0.65018 10.3834 1.00018 16.3668 4.83351 20.1834C7.93351 23.2834 12.4502 24.1001 16.3168 22.6501L31.5002 37.8335C32.1502 38.4835 33.2002 38.4835 33.8502 37.8335L37.6835 34.0001C38.3335 33.3334 38.3335 32.3168 37.6835 31.6668ZM32.6835 34.3168L16.9168 18.5501C15.9002 19.3001 14.7668 19.7501 13.5835 19.9168C11.3168 20.2501 8.93351 19.5668 7.20018 17.8334C5.61685 16.2668 4.88351 14.1668 5.00018 12.1001L10.1502 17.2501L17.2168 10.1834L12.0668 5.00011C14.1668 4.91678 16.2168 5.65011 17.8002 7.21678C19.6002 9.01678 20.2835 11.5001 19.8668 13.8168C19.6668 15.0001 19.1668 16.1001 18.4002 17.0834L34.1668 32.8335L32.6835 34.3168Z" fill="#282828"/>
</svg>
